<?xml version="1.0" encoding="UTF-8" standalone="no"?>
<!-- Created with Inkscape (http://www.inkscape.org/) -->

<svg
   xmlns:dc="http://purl.org/dc/elements/1.1/"
   xmlns:cc="http://creativecommons.org/ns#"
   xmlns:rdf="http://www.w3.org/1999/02/22-rdf-syntax-ns#"
   xmlns:svg="http://www.w3.org/2000/svg"
   xmlns="http://www.w3.org/2000/svg"
   xmlns:sodipodi="http://sodipodi.sourceforge.net/DTD/sodipodi-0.dtd"
   xmlns:inkscape="http://www.inkscape.org/namespaces/inkscape"
   width="60"
   height="60"
   viewBox="0 0 15.875 15.875"
   version="1.1"
   id="svg8"
   sodipodi:docname="log-active.svg"
   inkscape:version="0.92.2 (5c3e80d, 2017-08-06)">
  <defs
     id="defs2" />
  <sodipodi:namedview
     id="base"
     pagecolor="#ffffff"
     bordercolor="#666666"
     borderopacity="1.0"
     inkscape:pageopacity="0.0"
     inkscape:pageshadow="2"
     inkscape:zoom="11.313709"
     inkscape:cx="22.793331"
     inkscape:cy="32.495035"
     inkscape:document-units="mm"
     inkscape:current-layer="layer3"
     showgrid="true"
     units="px"
     inkscape:window-width="1920"
     inkscape:window-height="1017"
     inkscape:window-x="-8"
     inkscape:window-y="-8"
     inkscape:window-maximized="1"
     inkscape:snap-grids="false"
     inkscape:snap-to-guides="true"
     inkscape:snap-global="true"
     inkscape:measure-start="44.2388,8.92545"
     inkscape:measure-end="44.2383,10.5234">
    <inkscape:grid
       type="xygrid"
       id="grid7194" />
  </sodipodi:namedview>
  <metadata
     id="metadata5">
    <rdf:RDF>
      <cc:Work
         rdf:about="">
        <dc:format>image/svg+xml</dc:format>
        <dc:type
           rdf:resource="http://purl.org/dc/dcmitype/StillImage" />
        <dc:title></dc:title>
      </cc:Work>
    </rdf:RDF>
  </metadata>
  <g
     inkscape:groupmode="layer"
     id="layer4"
     inkscape:label="Layer 3"
     style="display:inline">
    <path
       id="path2852-2-0"
       style="opacity:1;fill:#f9f9f9;fill-opacity:1;stroke-width:0.24243115"
       d="m 4.8765104,1.5290651 v 0.497644 c 0.043818,-0.046798 0.09625,-0.074413 0.1503783,-0.074414 0.02906,-4e-7 0.057796,0.00821 0.085266,0.021704 V 1.7786622 h 2.236556 2.2365559 v 0.6015137 c 0.00259,0.00369 0.00369,0.00553 0.00568,0.010335 v 5.16e-4 c 9.789e-4,0.00153 0.00169,0.00301 0.00259,0.00465 5.821e-4,0.00106 9.26e-4,0.00204 0.00156,0.0031 3.44e-4,6.376e-4 8.996e-4,0.00137 0.00103,0.00207 6.879e-4,7.011e-4 0.00146,0.00129 0.00206,0.00207 9.26e-4,0.00123 0.00177,0.00231 0.00259,0.00362 1.77e-4,2.857e-4 -0.00124,-8.044e-4 -0.00103,-5.16e-4 0.00119,0.00195 0.00293,0.00374 0.00413,0.00568 7.144e-4,0.00116 0.00138,0.00243 0.00206,0.00362 1.67e-4,3.096e-4 -7.937e-4,-1.712e-4 -0.00103,-5.159e-4 0.0045,0.00508 0.00146,3.228e-4 0.00465,0.00517 0.0013,0.00269 0.00251,0.00544 0.00362,0.00827 2.051e-4,5.344e-4 3.44e-4,0.00101 5.292e-4,0.00155 l 5.291e-4,5.16e-4 c 2.249e-4,2.393e-4 -5.34e-5,-4.657e-4 0.00103,0.00103 1.741e-4,2.279e-4 3.175e-4,7.514e-4 5.292e-4,0.00103 0.00119,8.467e-4 0.00262,0.00136 0.00362,0.00258 -0.00151,-8.017e-4 6.51e-5,6.44e-5 0.00206,0.00207 2.019e-4,2.024e-4 2.91e-4,8.493e-4 5.291e-4,0.00103 0.0094,0.00819 1.019e-4,-7.461e-4 0.00465,0.00362 l 5.292e-4,5.159e-4 c 5.556e-4,4.922e-4 0.00167,8.996e-4 0.00206,0.00155 0.0048,0.00333 0.0089,0.00764 0.01292,0.011886 0.0078,0.0082 0.00683,0.015041 0.00414,0.020154 0.00201,0.00264 0.00398,0.00545 0.00568,0.00775 0.0042,0.00429 0.0082,0.00877 0.01188,0.013436 0.0029,0.00369 0.0013,0.00302 0.0036,0.00362 0.0016,0.00163 0.0035,0.00304 0.0052,0.00465 0.0046,0.00449 0.0016,0.0017 0.0067,0.00827 8.47e-4,0.00109 0.0017,0.00206 0.0026,0.0031 0.04972,0.00284 0.09758,0.027594 0.138493,0.069763 l -0.0026,-0.7167521 0.7095166,0.7828979 0.690397,0.7219197 0.136943,0.1508954 -0.120923,5.291e-4 h -0.589628 c 8.47e-4,6.879e-4 0.0018,0.00138 0.0026,0.00206 0.0055,0.00452 0.01095,0.00897 0.01654,0.013436 0.0043,0.00347 0.0091,0.00681 0.01344,0.010335 0.0048,0.00391 0.0092,0.00789 0.01395,0.011885 0.0051,0.00433 0.03453,0.029541 0.03876,0.033073 0.0024,0.0022 0.0047,0.00456 0.0072,0.00672 0.0023,0.00206 0.0049,0.00359 0.0072,0.00568 0.0081,0.00733 0.01552,0.015594 0.02377,0.022738 0.0201,0.017423 0.0032,0.037909 -0.01705,0.020672 h -5.29e-4 c -0.0087,-0.00744 -0.01631,-0.016068 -0.0248,-0.02377 -0.002,-0.0018 -0.0042,-0.00339 -0.0062,-0.00517 -0.0026,-0.0023 -0.0053,-0.00492 -0.0078,-0.00723 -0.0049,-0.00409 -0.01982,-0.016798 -0.02997,-0.025321 0.0013,0.00148 0.0023,0.00316 0.0036,0.00465 -3.97e-4,-5.821e-4 -0.0014,-0.00167 0.0072,0.0062 0.0019,0.00167 6.88e-4,0.00293 0.0021,0.00465 0.0038,0.0045 0.0077,0.0089 0.01137,0.013436 0.01125,0.011689 0.02257,0.023228 0.03359,0.03514 0.01715,0.018534 0.02376,0.026631 0.03721,0.041858 1.85e-4,-9.79e-4 3.17e-4,-0.00217 5.29e-4,-0.0031 5.82e-4,-0.00271 0.0019,-0.00286 0.0072,0.00103 l 5.29e-4,5.292e-4 c 4.76e-4,1.987e-4 6.09e-4,1.416e-4 0.001,5.292e-4 5.03e-4,3.439e-4 0.0011,6.35e-4 0.0016,0.00103 0.0014,8.467e-4 0.0029,0.00153 0.0041,0.00259 2.57e-4,2.251e-4 2.9e-5,7.408e-4 5.3e-4,0.00103 l 5.29e-4,5.292e-4 c 5.02e-4,3.44e-4 0.0015,6.879e-4 0.0021,0.00103 10e-4,0.00103 -10e-4,-7.144e-4 0.0021,0.00156 0.0017,0.00124 0.0036,0.00233 0.0052,0.00362 5.02e-4,3.968e-4 8.2e-4,8.466e-4 10e-4,0.00103 9.79e-4,6.615e-4 0.0021,0.0014 0.0031,0.00206 7.41e-4,5.821e-4 0.0013,0.00101 0.0021,0.00156 0.0035,0.00251 0.0022,9.261e-4 0.0062,0.00414 0.0019,0.00156 0.0031,0.00372 0.0052,0.00517 0.0013,0.00119 0.0028,0.00238 0.0041,0.00362 5.82e-4,5.821e-4 8.99e-4,0.00101 0.0016,0.00156 0.0012,0.00106 0.0024,0.00204 0.0036,0.0031 0.0028,0.00243 0.0055,0.00529 0.0083,0.00775 0.0013,0.0013 0.0023,0.00279 0.0036,0.00414 0.0019,9.525e-4 0.0037,0.0022 0.0057,0.0031 0.0022,0.00106 0.0087,0.004 0.01085,0.00517 0.0018,9.789e-4 0.0034,0.00257 0.0052,0.00362 0.0049,0.00302 0.01018,0.00544 0.0155,0.00775 0.0094,0.00408 0.0094,0.00973 0.0093,0.014986 h 0.581877 v 4.7423461 4.7428634 h -0.24598 c 0.0036,0.0087 0.01036,0.0155 0.01189,0.02532 0.01667,-0.0016 0.01737,0.0044 0,0.01912 0.0027,0.05945 -0.01956,0.129782 -0.02584,0.172599 -0.0019,0.01286 -0.0058,0.02222 -0.0093,0.03256 h 0.50488 V 8.5901327 3.6700197 L 10.713881,2.599284 9.7227265,1.5290651 H 7.2996182 Z M 11.234779,13.305607 c -2.91e-4,-0.0063 9.26e-4,-0.01316 0,-0.01912 -0.02401,0.0022 -0.07022,0.01312 -0.111104,0.0217 0.0098,0.01386 0.02042,0.02869 0.03049,0.04392 -0.01139,0.0036 -0.02158,0.01029 -0.03256,0.01499 0.03702,0.0134 0.06471,-0.0251 0.102836,-0.05219 0.0065,-0.0046 0.0063,-0.0059 0.01033,-0.0093 z"
       inkscape:connector-curvature="0" />
  </g>
  <g
     inkscape:groupmode="layer"
     id="layer3"
     inkscape:label="Layer 2"
     style="opacity:1">
    <path
       id="path2852-2"
       style="fill:#f9f9f9;fill-opacity:1;stroke-width:0.24243115"
       d="m 4.5235605,1.9491944 v 0.497644 c 0.043818,-0.046798 0.09625,-0.074413 0.1503783,-0.074414 0.02906,-5e-7 0.057802,0.00821 0.085266,0.021704 V 2.1987916 h 2.2365559 2.236556 v 0.6015136 c 0.00257,0.00369 0.00372,0.00553 0.00568,0.010335 v 5.16e-4 c 9.789e-4,0.00153 0.00167,0.00301 0.00259,0.00465 5.821e-4,0.00106 9.789e-4,0.00204 0.00156,0.0031 3.44e-4,6.376e-4 8.731e-4,0.00137 0.00103,0.00207 6.879e-4,7.011e-4 0.00148,0.00129 0.00206,0.00207 9.261e-4,0.00123 0.00177,0.00231 0.00259,0.00362 1.77e-4,2.858e-4 -0.00122,-8.043e-4 -0.00103,-5.159e-4 0.00122,0.00195 0.00289,0.00374 0.00414,0.00568 7.144e-4,0.00116 0.00143,0.00243 0.00206,0.00362 1.669e-4,3.096e-4 -7.673e-4,-1.872e-4 -0.00103,-5.159e-4 0.00451,0.00508 0.00143,3.254e-4 0.00465,0.00517 0.00135,0.00269 0.00254,0.00544 0.00362,0.00827 2.045e-4,5.344e-4 3.44e-4,0.00101 5.292e-4,0.00155 l 5.292e-4,5.16e-4 c 2.241e-4,2.393e-4 -5.61e-5,-4.683e-4 0.00103,0.00103 1.733e-4,2.274e-4 3.175e-4,7.488e-4 5.293e-4,0.00103 0.00119,8.467e-4 0.00265,0.00136 0.00362,0.00259 -0.00153,-8.017e-4 1.623e-4,8.06e-5 0.00206,0.00207 2.026e-4,2.024e-4 2.91e-4,8.467e-4 5.292e-4,0.00103 0.0094,0.00819 4.07e-5,-7.435e-4 0.00465,0.00362 l 5.292e-4,5.159e-4 c 5.556e-4,4.922e-4 0.00169,8.996e-4 0.00206,0.00155 0.0048,0.00333 0.0089,0.00764 0.01292,0.011886 0.00777,0.0082 0.00684,0.015041 0.00414,0.020154 0.00201,0.00264 0.00396,0.00545 0.00568,0.00775 0.00415,0.00429 0.00816,0.00877 0.011885,0.013436 0.00295,0.00369 0.00127,0.00302 0.00362,0.00362 0.00164,0.00163 0.00353,0.00304 0.00517,0.00465 0.00456,0.00449 0.00159,0.0017 0.00672,0.00827 8.466e-4,0.00109 0.00175,0.00206 0.00259,0.0031 0.04972,0.00284 0.097577,0.027594 0.138493,0.069763 l -0.00259,-0.7167521 0.7095183,0.7828979 0.690397,0.7219198 0.136943,0.1508951 -0.120923,5.292e-4 h -0.589628 c 8.46e-4,6.879e-4 0.0017,0.00138 0.0026,0.00206 0.0055,0.00452 0.01095,0.00897 0.01654,0.013435 0.0043,0.00347 0.0091,0.00681 0.01344,0.010335 0.0048,0.00391 0.0092,0.00789 0.01395,0.011885 0.0051,0.00433 0.03453,0.029541 0.03876,0.033073 0.0024,0.0022 0.0047,0.00456 0.0072,0.00672 0.0023,0.00206 0.0049,0.00359 0.0072,0.00569 0.0081,0.00733 0.01552,0.015595 0.02377,0.022738 0.0201,0.017423 0.0032,0.037883 -0.01705,0.020672 h -5.3e-4 c -0.0087,-0.00744 -0.01631,-0.016065 -0.0248,-0.02377 -0.002,-0.0018 -0.0042,-0.00339 -0.0062,-0.00517 -0.0026,-0.0023 -0.0053,-0.00491 -0.0078,-0.00723 -0.0049,-0.00409 -0.01982,-0.016798 -0.02997,-0.025321 0.0013,0.00148 0.0023,0.00316 0.0036,0.00465 -3.97e-4,-5.821e-4 -9.26e-4,-0.00167 0.0078,0.0062 0.0019,0.00167 1.8e-5,0.00293 0.0016,0.00465 0.0038,0.0045 0.0077,0.0089 0.01137,0.013435 0.01125,0.011689 0.02257,0.023228 0.03359,0.03514 0.01715,0.018534 0.02376,0.026631 0.03721,0.041858 1.85e-4,-9.789e-4 3.18e-4,-0.00217 5.29e-4,-0.0031 5.83e-4,-0.00271 0.0024,-0.00281 0.0078,0.00103 l 5.29e-4,5.291e-4 c 4.76e-4,1.987e-4 5.82e-4,-8.94e-5 0.001,5.292e-4 5.02e-4,3.44e-4 0.0011,6.35e-4 0.0016,0.00103 0.0014,8.467e-4 0.0029,0.00153 0.0041,0.00259 2.57e-4,2.199e-4 -2.02e-4,7.408e-4 5.29e-4,0.00103 l 5.29e-4,5.291e-4 c 5.03e-4,3.44e-4 9.79e-4,6.88e-4 0.0016,0.00103 10e-4,0.00103 -9.79e-4,-7.144e-4 0.0021,0.00156 0.0017,0.00124 0.0036,0.00233 0.0052,0.00362 5.03e-4,3.969e-4 7.94e-4,8.467e-4 0.001,0.00103 9.79e-4,6.615e-4 0.0021,0.0014 0.0031,0.00206 7.41e-4,5.821e-4 0.0013,0.00101 0.0021,0.00156 0.0035,0.00251 0.0022,9.26e-4 0.0062,0.00414 0.0019,0.00156 0.0031,0.00372 0.0052,0.00517 0.0013,0.00119 0.0028,0.00238 0.0041,0.00362 5.82e-4,5.821e-4 9.53e-4,0.00101 0.0016,0.00156 0.0012,0.00106 0.0024,0.00204 0.0036,0.0031 0.0028,0.00243 0.0055,0.00529 0.0083,0.00775 0.0013,0.0013 0.0024,0.00275 0.0036,0.00414 0.0019,9.525e-4 0.0037,0.0022 0.0057,0.0031 0.0022,0.00106 0.0087,0.004 0.01085,0.00517 0.0018,9.79e-4 0.0034,0.00257 0.0052,0.00362 0.0049,0.00302 0.01018,0.00544 0.0155,0.00775 0.0094,0.00408 0.0094,0.00973 0.0093,0.014986 h 0.581876 v 4.742346 4.7428624 h -0.24598 c 0.0036,0.0087 0.01035,0.0155 0.01189,0.02532 0.01667,-0.0016 0.01738,0.0044 0,0.01912 0.0027,0.05945 -0.01956,0.129782 -0.02584,0.172599 -0.0019,0.01286 -0.0058,0.02222 -0.0093,0.03256 h 0.504879 V 9.0102619 4.0901488 L 10.360931,3.0194133 9.3697761,1.9491944 H 6.9466683 Z M 10.881829,13.725736 c -2.91e-4,-0.0063 9.26e-4,-0.01316 0,-0.01912 -0.02401,0.0022 -0.07022,0.01312 -0.111104,0.0217 0.0098,0.01386 0.02042,0.02869 0.03049,0.04392 -0.01139,0.0036 -0.02158,0.01029 -0.03256,0.01499 0.03702,0.0134 0.06471,-0.0251 0.102836,-0.05219 0.0065,-0.0046 0.0063,-0.0059 0.01033,-0.0093 z"
       inkscape:connector-curvature="0" />
  </g>
  <g
     inkscape:label="Layer 1"
     inkscape:groupmode="layer"
     id="layer1"
     transform="translate(0,-281.12498)">
    <rect
       id="rect2889-7"
       width="3.767163"
       height="0.19419849"
       x="4.9944305"
       y="-284.9024"
       style="stroke-width:0.26458332;fill:#f9f9f9"
       transform="scale(1,-1)" />
    <path
       style="fill:#f9f9f9;fill-opacity:1;stroke-width:0.24243115"
       d="M 7.5843555,295.47091 H 4.1703644 v -5.99093 -5.99092 h 2.4231784 2.4231788 l 0.9908124,1.07034 0.990813,1.07034 v 4.92057 4.92059 z m 0,-0.24963 h 3.1785435 v -4.74282 -4.74281 H 9.8211085 8.8793177 v -0.99849 -0.99849 H 6.6425649 4.405812 v 5.7413 5.74131 z m 2.236753,-9.73525 h 0.7063435 l 0.121057,-5.9e-4 -0.137135,-0.15123 -0.6902655,-0.72184 -0.7094439,-0.78257 0.0031,0.86068 v 0.79556 z"
       id="path2852"
       inkscape:connector-curvature="0"
       sodipodi:nodetypes="ccccccccccccccccccccccccccccccccc" />
    <rect
       id="rect2889-6"
       width="5.1761746"
       height="0.19419849"
       x="4.994431"
       y="286.69519"
       style="stroke-width:0.31014138;fill:#f9f9f9" />
    <rect
       id="rect2889-6-1"
       width="5.1761751"
       height="0.19419849"
       x="4.994431"
       y="287.6937"
       style="stroke-width:0.31014138;fill:#f9f9f9" />
    <rect
       id="rect2889-6-6"
       width="5.1761751"
       height="0.19419849"
       x="4.994431"
       y="289.69064"
       style="stroke-width:0.31014138;fill:#f9f9f9" />
    <rect
       id="rect2889-6-2"
       width="5.1761751"
       height="0.19419849"
       x="4.994431"
       y="291.68762"
       style="stroke-width:0.31014138;fill:#f9f9f9" />
    <rect
       id="rect2889-6-62"
       width="5.1761751"
       height="0.19419849"
       x="4.994431"
       y="292.6861"
       style="stroke-width:0.31014138;fill:#f9f9f9" />
    <rect
       id="rect2889-6-0"
       width="5.1737742"
       height="0.19419849"
       x="5.0005045"
       y="294.73859"
       style="stroke-width:0.31006947;fill:#f9f9f9"
       ry="0" />
  </g>
</svg>
